<svg xmlns="http://www.w3.org/2000/svg" viewBox="0 0 157 157"><defs><style>.cls-1{fill:none;}.cls-2{fill:#ca1e23;}</style></defs><g id="레이어_2" data-name="레이어 2"><g id="레이어_1-2" data-name="레이어 1"><rect class="cls-1" width="157" height="157"/><path class="cls-2" d="M143.42,64.81h3.81a.43.43,0,0,0,.44-.42V57.64a.44.44,0,0,0-.44-.43h-5.35c-6.18,0-9.46,1.87-11.33,5.82l-11.62,26.8a3.54,3.54,0,0,1-3.73,2.35V57.64a.44.44,0,0,0-.45-.43h-8.54a.45.45,0,0,0-.45.43V99a.78.78,0,0,0,.8.75h9.58c6.17,0,9-1.87,10.87-5.81l11.47-26.47c.92-1.87,2.24-2.7,4.94-2.7"/><path class="cls-2" d="M39,78.5a9.53,9.53,0,0,0,6.27-9.34c0-7.43-6.78-11.95-15-11.95H5.11a.44.44,0,0,0-.45.43V64.4a.43.43,0,0,0,.45.41h23.5C32.4,64.81,35,67,35,69.68s-2.56,4.87-6.35,4.87h-14v-5a.44.44,0,0,0-.45-.42H5.11a.44.44,0,0,0-.45.42V99.36a.44.44,0,0,0,.45.43H30c9.3,0,16-4.09,16-12.41,0-4.09-2.56-7.48-6.91-8.88M29.09,92.37H14.65v-10H29.09c3.89,0,6.52,2.23,6.52,5s-2.63,5-6.52,5"/><path class="cls-2" d="M152.26,99.3,137.62,81.67a.07.07,0,0,0-.13,0l-4,9.07a.2.2,0,0,0,0,.17L140,99a2,2,0,0,0,1.73.78H152a.29.29,0,0,0,.24-.49"/><path class="cls-2" d="M62,69.11H53.44a.44.44,0,0,0-.45.42V99.36a.44.44,0,0,0,.45.43H62a.44.44,0,0,0,.45-.43V69.53a.44.44,0,0,0-.45-.42"/><path class="cls-2" d="M97.16,57.21H88.61a.44.44,0,0,0-.44.43V92.18a3.52,3.52,0,0,1-3.72-2.35L72.82,63c-1.87-4-5.15-5.82-11.33-5.82H53.44a.44.44,0,0,0-.45.43V64.4a.43.43,0,0,0,.45.41H60c2.7,0,4,.83,4.94,2.71L76.36,94c1.88,3.94,4.7,5.81,10.88,5.81h9.58a.77.77,0,0,0,.79-.75V57.64a.44.44,0,0,0-.45-.43"/></g></g></svg>