<svg xmlns="http://www.w3.org/2000/svg" xmlns:xlink="http://www.w3.org/1999/xlink" viewBox="0 0 157 157"><defs><style>.cls-1{fill:none;}.cls-2{fill:url(#radial-gradient);}.cls-3{fill:#004097;}</style><radialGradient id="radial-gradient" cx="61.41" cy="4585.41" r="440.44" gradientTransform="translate(40.29 -790.69) scale(0.16 0.2)" gradientUnits="userSpaceOnUse"><stop offset="0.01" stop-color="#004097"/><stop offset="0.15" stop-color="#00449a"/><stop offset="0.32" stop-color="#0052a4"/><stop offset="0.42" stop-color="#005ead"/><stop offset="0.55" stop-color="#0b6b98"/><stop offset="0.81" stop-color="#298d60"/><stop offset="1" stop-color="#41a933"/></radialGradient></defs><g id="레이어_2" data-name="레이어 2"><g id="레이어_1-2" data-name="레이어 1"><rect class="cls-1" width="157" height="157"/><path class="cls-2" d="M141.25,70.39a26.36,26.36,0,0,1,1.25,8.1c0,22.53-28.65,40.8-64,40.8a94.89,94.89,0,0,1-28.25-4.18c5.84-5.65,12.51-10.62,30.56-12.72C99,100.29,142.45,98.17,141.25,70.39Z"/><path class="cls-3" d="M112.3,66.07c0-3.55-2.87-5.36-8.7-5.36-1,0-2.22,0-3.48.15-.42,1.66-.54,5.21-.54,10.74v1.77h1.62C108.64,73.37,112.3,70.57,112.3,66.07Z"/><path class="cls-3" d="M38.55,60.48a21.9,21.9,0,0,0-5,.55,84.55,84.55,0,0,0-.41,11.06v7.85c0,4.88.1,7.92.25,9.06.26,1.82,1.59,2.25,5.93,2.25,8.36,0,13-5.58,13-15.09C52.32,66.18,47.38,60.48,38.55,60.48Z"/><path class="cls-3" d="M132.9,65.27c-.26-6.45-4.9-12.84-9.82-16.06-11.54-7.12-27.26-11.5-44.58-11.5-35.36,0-64,18.28-64,40.78,0,16.05,14.51,29.92,35.63,36.59,5-9.36,17.9-13.88,39.15-17.73a155.55,155.55,0,0,0,16.7-3.8h-.58c-3.06,0-5.88-.32-8.4-.32H92.92c1.43-1.33,1.48-6.5,1.48-15.73V75.3c0-9.66,0-15.09-1.48-16.48h5c3.84,0,7.44-.37,10.86-.37,6,0,9.25,2.46,9.25,6.49,0,3.86-3.13,6.87-9.3,8.75C116,74.45,120,77.88,120,83a9.13,9.13,0,0,1-2.12,5.93C127.15,84.06,133.39,76.81,132.9,65.27ZM39.67,93.51c-3.42,0-6.33-.27-8.78-.27H27.42c1.23-1.33,1.28-6.5,1.28-15.73V75.3c0-9.66,0-15.09-1.28-16.48h3.73c4.24,0,8-.64,11.33-.64,9.54,0,15.05,6.34,15.05,16.27C57.53,86.1,50.73,93.51,39.67,93.51Zm48.76-7.74c0,3.23,0,5.65.57,7.19-5.47.35-9.35.93-11.64.93C66.08,93.89,60,87.77,60,77c0-11.45,7.6-18.8,20.4-18.8a57.49,57.49,0,0,1,8,.64l-.06,6.28a12.37,12.37,0,0,0-9.9-4.45c-8,0-13.15,5.89-13.15,15.46s5.55,15.14,14.53,15.14a14.79,14.79,0,0,0,3.79-.43,42.4,42.4,0,0,0,.4-6.33c0-4.45-.3-7.31-1.28-8.54H89.6C88.54,77.57,88.43,80.79,88.43,85.77Z"/><path class="cls-3" d="M99.58,82a44.51,44.51,0,0,0,.48,8.21c.29.87,2,1.4,4.81,1.4,5.64,0,8.93-3,8.93-8.16,0-5-3.59-8.07-10.43-8.07H99.58Z"/></g></g></svg>