<svg xmlns="http://www.w3.org/2000/svg" xmlns:xlink="http://www.w3.org/1999/xlink" viewBox="0 0 157 157"><defs><style>.cls-1{fill:none;}.cls-2{fill:url(#linear-gradient);}.cls-3{fill:#fff;}</style><linearGradient id="linear-gradient" x1="-327.94" y1="6615.52" x2="-327.94" y2="6816.52" gradientTransform="translate(158.81 -1552.05) scale(0.24)" gradientUnits="userSpaceOnUse"><stop offset="0" stop-color="#94c51b"/><stop offset="0.6" stop-color="#00964c"/><stop offset="1" stop-color="#007260"/></linearGradient></defs><g id="레이어_2" data-name="레이어 2"><g id="레이어_1-2" data-name="레이어 1"><rect class="cls-1" width="157" height="157"/><path class="cls-2" d="M40.08,93.54c0,12.85,7.87,23.36,37.66,23.36h1.52c29.79,0,37.66-10.51,37.66-23.36V63.44c0-12.85-7.87-23.36-37.66-23.36H77.74C48,40.08,40.08,50.59,40.08,63.44Z"/><path class="cls-3" d="M79.26,116.92c2.14,0,4.17-.06,6.09-.16v-13c5.45,0,12.77-2.23,16-9.28,3.86-8.36.05-14.76-3.64-17.9,2.32-2.88,3.76-8.2,1.8-13.81-3.35-9.53-12.85-10-16.07-10H79.21v64.2Zm6.09-57.67h.83a8.93,8.93,0,0,1,8.41,8.9c0,6.16-5.8,9.09-6.41,9.29.27,0,8.3,2.43,8.3,9.91,0,5.75-5.2,9.92-11.13,9.92Z"/><path class="cls-3" d="M66.48,77c-1.82-1.57-4.85-4.8-4.71-8.84.12-3.65,1.86-6.47,4.77-7.75a20,20,0,0,1,7.7-1.15h.46v-6.5h-.33c-2.49,0-6.62,0-10.37,1.62C58.68,56.68,55.39,61.8,55.18,68c-.17,5,2.3,10,6.94,14,4.41,3.81,6.67,6,5.56,10.81-.93,4-7.19,9.41-9.2,10.85h9C69.69,102,73.21,98,74.1,94.17,76.15,85.31,70.79,80.68,66.48,77Z"/></g></g></svg>