<svg xmlns="http://www.w3.org/2000/svg" viewBox="0 0 157 157"><defs><style>.cls-1{fill:none;}.cls-2{fill:#008375;}.cls-3{fill:#d50037;}</style></defs><g id="레이어_2" data-name="레이어 2"><g id="레이어_1-2" data-name="레이어 1"><rect class="cls-1" width="157" height="157"/><path class="cls-2" d="M98.89,89.61a21.42,21.42,0,0,0-1.54-5.24c-2.31-5-5.54-9.21-10.38-12a23.35,23.35,0,0,0-24.06.15A21.19,21.19,0,0,0,55,81a23.52,23.52,0,0,0-1.5,3.72c-2,6.23-1.89,14.62,1.64,20.31A10.23,10.23,0,0,0,60,109.24a7,7,0,0,0,6.29-.49c2.37-1.52,2.79-4.45,2.35-7-.56-3.31-1-6.57.23-9.82a7.71,7.71,0,0,1,1.75-2.8A6.54,6.54,0,0,1,72.27,88a7,7,0,0,1,4.15-.67A8,8,0,0,1,82,91.83a18.38,18.38,0,0,1,1.5,7.28c.52,10.86-2.07,22.11-4.84,32.55-.29,1.08-.58,2.14-.89,3.21-.24.83-.65,1.88-.13,2.68a2,2,0,0,0,1,.74c1.61.65,2.92-.33,4-1.42,6.37-6.41,10.45-14.68,13.24-23.18A73.06,73.06,0,0,0,98.41,104a42.5,42.5,0,0,0,.48-14.39"/><path class="cls-2" d="M144.49,39.4a2.77,2.77,0,0,0-3-2.66A14.39,14.39,0,0,0,137,38.16c-28,10.65-59.61,12.67-89.14,8.42-5.06-.73-10.17-1.75-15.25-2.54-3.17-.5-6.32-1.22-9.53-1.46-2.72-.21-6.13-.3-8.34,1.59-2.91,2.52-2.71,7.29-1,10.44,2,3.78,5.46,6.61,9.07,8.77s7.7,4.32,11.88,4.06q16.92-1.08,33.76-3.27c19.12-2.48,39.18-4.83,57.14-12.25a71.81,71.81,0,0,0,16.71-9.36c.91-.69,2.22-1.84,2.22-3.16"/><path class="cls-3" d="M64.14,29.8a11,11,0,0,0,22,0,6.18,6.18,0,0,0-.6-2.64c-.94-2-2-3-1.89-5.37.13-3.25-4-3.29-6.25-3.29a16.23,16.23,0,0,0-7.22,1.44,11.21,11.21,0,0,0-4.33,3.9,11,11,0,0,0-1.75,5.7v.26"/></g></g></svg>