<svg xmlns="http://www.w3.org/2000/svg" viewBox="0 0 157 157"><defs><style>.cls-1{fill:none;}.cls-2{fill:#fff;}.cls-3{fill:#138fca;}.cls-4{fill:#e43d30;}.cls-5{fill:#025198;}</style></defs><g id="레이어_2" data-name="레이어 2"><g id="레이어_1-2" data-name="레이어 1"><rect class="cls-1" width="157" height="157"/><path class="cls-2" d="M48.37,23.08a13.09,13.09,0,0,0-6.64,7.66L20.51,94.52a13.11,13.11,0,0,0,.73,10.14,13.27,13.27,0,0,0,7.66,6.63l69.59,23.36a13.25,13.25,0,0,0,16.78-8.4L136.49,62.5a13.29,13.29,0,0,0-8.39-16.8L58.51,22.35a13.1,13.1,0,0,0-10.14.73"/><path class="cls-3" d="M82.39,84.32a36.29,36.29,0,0,1-14,9.73l-3.14,1.22V65.72l3.1,1.2a36.59,36.59,0,0,1,14,9.69,31.83,31.83,0,0,0,4.72-14.89C88,47.56,79.1,34.56,66.92,30L56.86,26.69A8.59,8.59,0,0,0,46,32.21L24.72,96a8.71,8.71,0,0,0,5.58,11L78.59,123.1a32,32,0,0,0,3.8-38.78M54.47,97.09H49.68V64h4.79Z"/><path class="cls-4" d="M79.6,80.47a32.11,32.11,0,0,0-9.72-7.76V88.28a32,32,0,0,0,9.72-7.81"/><path class="cls-5" d="M126.55,50,82.23,35.15a36.47,36.47,0,0,1,3.22,45.32,36.52,36.52,0,0,1-2.12,44.23L100,130.25a8.59,8.59,0,0,0,10.87-5.52l21.29-63.81a8.73,8.73,0,0,0-5.59-11M114.81,97l-6,0L96.51,80.43,109,63.87l6,0L102.52,80.46Z"/></g></g></svg>