<svg xmlns="http://www.w3.org/2000/svg" viewBox="0 0 157 157"><defs><style>.cls-1{fill:none;}.cls-2{fill:#ffe600;}.cls-3{fill:#271d20;}</style></defs><g id="레이어_2" data-name="레이어 2"><g id="레이어_1-2" data-name="레이어 1"><rect class="cls-1" width="157" height="157"/><path class="cls-2" d="M133.12,119.21c0,9-7,16.29-15.6,16.29h-78c-8.61,0-15.6-7.29-15.6-16.29V37.78c0-9,7-16.28,15.6-16.28h78c8.62,0,15.6,7.29,15.6,16.28Z"/><path class="cls-3" d="M100.56,89.9A16,16,0,0,0,95,79.72c-.46-.4-.94-.77-1.49-1.22.45-.34.83-.6,1.18-.89a16.81,16.81,0,0,0,5-6.86,15.57,15.57,0,0,0,.91-8,15.78,15.78,0,0,0-4.12-8.71A16,16,0,0,0,90.63,50a17.47,17.47,0,0,0-6.77-1.29h-26a4.87,4.87,0,0,0-.54,0,1.1,1.1,0,0,0-1,1.12V106.5c0,.28,0,.56,0,.84a1,1,0,0,0,.86.94,3.25,3.25,0,0,0,.54,0H84.61a15.14,15.14,0,0,0,7.72-2.06,16.43,16.43,0,0,0,7.31-8.46A15.42,15.42,0,0,0,100.56,89.9Zm-20.68,2H75V65.13h4.8s0,0,0,0h.06Z"/></g></g></svg>