<svg xmlns="http://www.w3.org/2000/svg" viewBox="0 0 157 157"><defs><style>.cls-1{fill:none;}.cls-2{fill:#f8b500;}</style></defs><g id="레이어_2" data-name="레이어 2"><g id="레이어_1-2" data-name="레이어 1"><rect class="cls-1" width="157" height="157"/><path class="cls-2" d="M138.85,79.67,137.77,79c-3.68-3.67-8.8-5.26-15.65-4.86a29.53,29.53,0,0,0-13.68,4.71v-.16a54.64,54.64,0,0,1,.4-5.6,56,56,0,0,0,.41-5.7,13.49,13.49,0,0,0-.86-5.18,1,1,0,0,0-1-.62,14.86,14.86,0,0,0-6.31,2.07l-.48,1c0,2-.48,7.74-.93,8.43,0,0-.24.69-.24.69a103,103,0,0,0-.08,21.43c.08.61,1.27,1.53,2.18,1.87s4.13-.47,5.94-1.15l.68-.11a1,1,0,0,0,.88-1.19s0-1.77,0-1.77c1.31-5.3,6.58-11.62,12.83-12.57A8.88,8.88,0,0,1,130.44,83c.29.43.94,4.25-1.39,8.63-1.73,3.24-5.2,6-9.75,7.69a37.36,37.36,0,0,1-14.92,2.1L98.9,97.75c-4.65-3.26-10.43-7.32-15.66-9.31a18.65,18.65,0,0,1-3.56-2.54l-.54-.44c-3-2.42-8.76-6.26-13.38-9.33l-2.48-1.66V74c.14-.15,3-1.89,3-1.89,4.06-2.37,5.93-3.54,6.33-4.14-.08.1.54-.32.54-.32s10.06-5.69,10.06-5.69c9.66-5.31,20.6-11.33,26.35-17.28,0,0,.28-.91.28-.91l.12-.81a5.52,5.52,0,0,0,.09-3.38,1.07,1.07,0,0,0-.78-.76C104.82,38.32,99,41,93.76,46a13.88,13.88,0,0,1-3.24,2.23l-.8.45C83.91,51.94,70.82,60.06,64,64.44a229.86,229.86,0,0,1,3.49-26.58l-.19-1s-.71-1.32-.71-1.32l-.53-1-.15,0a4.33,4.33,0,0,0-3.31-.2l-1.36.5-1.83.66a1,1,0,0,0-.75.65C55.36,44,52.63,57,52,67.43a156.44,156.44,0,0,0-15.54-8.59l-.09-.05L36,58.72A10.8,10.8,0,0,1,32.39,57c-.14-.08-2.49-1.61-2.49-1.61L26.1,53s-1-.22-1-.22a11.85,11.85,0,0,0-5.7,3.82,1.1,1.1,0,0,0-.17.61,4.08,4.08,0,0,0,.17.9l.17.77.18.47c1.82,1.86,6.42,5,10.92,7.39l5.22,2.77,8,4.37S45.25,75,45.25,75l.94.54.17.11L31.82,85.31l-7.64,5.07a46.18,46.18,0,0,1-4.41,2.11,6.29,6.29,0,0,0-3.43,2.83l-.21.45.21.29.58.44s.79.51.79.51l.84.58.8.13c1.34,0,3.33-.72,7-2.35,3.42-1.51,12.71-7.12,16.68-9.51l1.69-1a3.8,3.8,0,0,0,2.16-1,21.29,21.29,0,0,1,3.58-2.17s.64-.34,1.21-.66c0,.17,0,.45,0,.45.17,12.15.87,21,2.2,27.78l0,.12.13.27c.65,1,1.39,3.84,2,6.38L57.62,121c0,.06.43.47.43.47a9.93,9.93,0,0,0,5.25,1.39l.44-.05.28-.62a11.72,11.72,0,0,0,.2-2.32c0-.93-.07-2-.15-3.2L64,114.88c-.56-8.47-1.11-20.71-1.11-28.85v-.65l7.74,4.87c10.72,7,26.92,17.47,36.71,20.24a1.42,1.42,0,0,0,1.42-.32s1.5-1,1.5-1l.29-.11a2.74,2.74,0,0,0,1-2.24c8.25-.42,19.76-3.59,25.91-11.33a16.12,16.12,0,0,0,3.46-9.82c0-2.58-.72-4.81-2-6"/></g></g></svg>