<svg xmlns="http://www.w3.org/2000/svg" viewBox="0 0 157 157"><defs><style>.cls-1{fill:none;}.cls-2{fill:#001655;}</style></defs><g id="레이어_2" data-name="레이어 2"><g id="레이어_1-2" data-name="레이어 1"><rect class="cls-1" width="157" height="157"/><polygon class="cls-2" points="35.91 65.5 27.26 65.5 13.6 81.4 13.6 65.5 6.7 65.5 6.7 100.19 13.6 100.19 13.6 84.25 27.71 100.19 36.36 100.19 21.01 82.84 35.91 65.5"/><polygon class="cls-2" points="150.31 100.19 139.93 88.19 149.99 76.19 142.55 76.19 133.78 86.58 133.78 65.5 126.87 65.5 126.87 100.19 133.78 100.19 133.78 89.78 142.71 100.19 150.31 100.19"/><path class="cls-2" d="M52.9,75.35a11.42,11.42,0,0,0-7.42,3V65.5h-6.9V88.35c0,6.87,4.55,12.63,13.11,12.63,7.7,0,13.11-5.31,13.11-12.76C64.8,81.17,60.14,75.35,52.9,75.35ZM51.69,94.73a6.57,6.57,0,0,1-6.56-6.38v-.19a6.57,6.57,0,1,1,6.56,6.57Z"/><path class="cls-2" d="M113.61,75.35a11.59,11.59,0,0,0-8,3V76.1h-6.9v24.1h6.9V86.69a5.09,5.09,0,1,1,10.18,0V100.2h7V84.76c0-.09,0-.19,0-.28A9.2,9.2,0,0,0,113.61,75.35Z"/><path class="cls-2" d="M81.32,75.37c-7.78,0-13.25,5.31-13.25,12.76,0,7.05,4.71,12.87,12,12.87a10.64,10.64,0,0,0,8.24-4.14v3.34h6.24V88.14h-.06l.06-.14C94.58,81.12,90,75.37,81.32,75.37Zm.15,19.32A6.57,6.57,0,1,1,88,88.13,6.57,6.57,0,0,1,81.47,94.69Z"/></g></g></svg>