<svg xmlns="http://www.w3.org/2000/svg" xmlns:xlink="http://www.w3.org/1999/xlink" viewBox="0 0 157 157"><defs><style>.cls-1{fill:none;}.cls-2{fill:url(#radial-gradient);}.cls-3{fill:url(#radial-gradient-2);}.cls-4{fill:url(#radial-gradient-3);}.cls-5{fill:url(#radial-gradient-4);}</style><radialGradient id="radial-gradient" cx="-1524.39" cy="-13808.56" r="165.36" gradientTransform="matrix(0, -0.42, -0.46, 0, -6330.24, -556.86)" gradientUnits="userSpaceOnUse"><stop offset="0" stop-color="#c6def3"/><stop offset="0.07" stop-color="#bedaf2"/><stop offset="0.17" stop-color="#a8d0ee"/><stop offset="0.25" stop-color="#91c5ea"/><stop offset="0.36" stop-color="#83b3de"/><stop offset="0.57" stop-color="#5f83c0"/><stop offset="0.7" stop-color="#4764ad"/><stop offset="0.86" stop-color="#3552a3"/><stop offset="1" stop-color="#213f98"/></radialGradient><radialGradient id="radial-gradient-2" cx="6951.83" cy="3447.46" r="108.5" gradientTransform="translate(-3045.19 -1501.93) scale(0.45)" xlink:href="#radial-gradient"/><radialGradient id="radial-gradient-3" cx="2116.02" cy="-10141.87" r="165.37" gradientTransform="matrix(0, 0.42, 0.46, 0, 4800.56, -804.19)" xlink:href="#radial-gradient"/><radialGradient id="radial-gradient-4" cx="3196.99" cy="68.01" r="108.5" gradientTransform="translate(1515.52 140.88) rotate(180) scale(0.45)" xlink:href="#radial-gradient"/></defs><g id="레이어_2" data-name="레이어 2"><g id="레이어_1-2" data-name="레이어 1"><rect class="cls-1" width="157" height="157"/><path class="cls-2" d="M39.37,56c-2.07,4.09,0,12.55,2.65,16.62L77.8,128.83H51.65a12.38,12.38,0,0,1-9.94-5.1L22.19,93.08a10.3,10.3,0,0,1,0-10.17Z"/><path class="cls-3" d="M54.48,83.71a8.87,8.87,0,0,0-.38,7.91L42,72.64C39.41,68.57,37.3,60.11,39.37,56l2.14-3.37c2-3.07,5.56-5.07,10.11-5.07H77.36Z"/><path class="cls-4" d="M117.62,101c2.07-4.1,0-12.55-2.63-16.64L79.21,28.17h26.14a12.4,12.4,0,0,1,9.94,5.09L134.8,63.92a10.3,10.3,0,0,1,0,10.17Z"/><path class="cls-5" d="M102.51,73.29a8.84,8.84,0,0,0,.39-7.91l12.09,19c2.59,4.09,4.7,12.54,2.63,16.64l-2.14,3.36c-1.94,3.07-5.54,5.07-10.11,5.07H79.64Z"/></g></g></svg>