<svg xmlns="http://www.w3.org/2000/svg" viewBox="0 0 157 157"><defs><style>.cls-1{fill:none;}.cls-2{fill:#008cce;}.cls-3{fill:#0094d6;}.cls-4{fill:#007ac5;}.cls-5{fill:#0067b5;}.cls-6{fill:#004193;}.cls-7{fill:#005bab;}.cls-8{fill:#004898;}.cls-9{fill:#08287e;}.cls-10{fill:#fff;}</style></defs><g id="레이어_2" data-name="레이어 2"><g id="레이어_1-2" data-name="레이어 1"><rect class="cls-1" width="157" height="157"/><rect class="cls-2" x="37" y="37" width="83" height="83"/><polygon class="cls-2" points="37 37 57.74 57.76 78.5 37 37 37"/><polygon class="cls-3" points="37 37 37 78.5 57.74 57.76 37 37"/><polygon class="cls-2" points="78.5 78.5 57.76 57.74 37 78.5 78.5 78.5"/><polygon class="cls-4" points="78.5 78.5 78.5 37 57.76 57.74 78.5 78.5"/><polygon class="cls-5" points="78.5 37 78.5 78.5 99.24 57.76 78.5 37"/><polygon class="cls-6" points="120 78.5 99.26 57.74 78.5 78.5 120 78.5"/><polygon class="cls-4" points="37 78.5 57.74 99.26 78.5 78.5 37 78.5"/><polygon class="cls-5" points="37 78.5 37 120 57.74 99.26 37 78.5"/><polygon class="cls-7" points="78.5 120 57.76 99.24 37 120 78.5 120"/><polygon class="cls-8" points="78.5 120 78.5 78.5 57.76 99.24 78.5 120"/><polygon class="cls-9" points="78.5 78.5 99.24 99.26 120 78.5 78.5 78.5"/><polygon class="cls-6" points="78.5 78.5 78.5 120 99.24 99.26 78.5 78.5"/><polygon class="cls-9" points="120 120 99.26 99.24 78.5 120 120 120"/><polygon class="cls-9" points="120 120 120 78.5 99.26 99.24 120 120"/><polygon class="cls-7" points="78.5 37 99.24 57.76 120 37 78.5 37"/><polygon class="cls-8" points="120 78.5 120 37 99.26 57.74 120 78.5"/><polygon class="cls-10" points="120 88.88 93.43 63.57 53.1 104 67.81 118.71 93.43 93.48 120 119.91 120 88.88"/></g></g></svg>