<svg xmlns="http://www.w3.org/2000/svg" xmlns:xlink="http://www.w3.org/1999/xlink" viewBox="0 0 157 157"><defs><style>.cls-1{fill:none;}.cls-2{clip-path:url(#clip-path);}.cls-3{clip-path:url(#clip-path-2);}.cls-4{fill:url(#무제_그라디언트);}.cls-5{clip-path:url(#clip-path-3);}.cls-6{clip-path:url(#clip-path-4);}.cls-7{fill:url(#무제_그라디언트_2);}.cls-8{clip-path:url(#clip-path-5);}.cls-9{clip-path:url(#clip-path-6);}.cls-10{fill:url(#무제_그라디언트_3);}</style><clipPath id="clip-path"><path class="cls-1" d="M60,106.42A15.12,15.12,0,0,1,48.91,81.05,33.61,33.61,0,0,1,44.83,65c0-.88,0-1.79.11-2.66A32.69,32.69,0,1,0,72,121.57V100.46a15.09,15.09,0,0,1-12,6"/></clipPath><clipPath id="clip-path-2"><rect class="cls-1" x="18.41" y="57.97" width="58.84" height="70.89" transform="translate(-15.5 9.72) rotate(-10)"/></clipPath><linearGradient id="무제_그라디언트" x1="-71.5" y1="-1649.5" x2="-70.5" y2="-1649.5" gradientTransform="matrix(0, -64.8, -64.8, 0, -106836.99, -4507.21)" gradientUnits="userSpaceOnUse"><stop offset="0" stop-color="#54c3f1"/><stop offset="0.15" stop-color="#54c3f1"/><stop offset="0.3" stop-color="#4cbaeb"/><stop offset="0.55" stop-color="#36a3dc"/><stop offset="0.86" stop-color="#137cc4"/><stop offset="1" stop-color="#0068b7"/></linearGradient><clipPath id="clip-path-3"><path class="cls-1" d="M60,76.19a15.12,15.12,0,0,1,4.87.81A16.3,16.3,0,1,1,93.31,61.21a32.92,32.92,0,0,1,18.75,1.08A33.67,33.67,0,1,0,48.91,81.05,15.1,15.1,0,0,1,60,76.19"/></clipPath><clipPath id="clip-path-4"><rect class="cls-1" x="38.6" y="21.88" width="80.15" height="69.71" transform="translate(-14.66 30.33) rotate(-20)"/></clipPath><linearGradient id="무제_그라디언트_2" gradientTransform="matrix(67.35, 0, 0, -67.35, 4857.51, -111042.34)" xlink:href="#무제_그라디언트"/><clipPath id="clip-path-5"><path class="cls-1" d="M100.88,60.33a32.6,32.6,0,0,0-7.57.88A16.31,16.31,0,0,1,94.79,68a16.11,16.11,0,0,1-2.69,9,15.45,15.45,0,0,1,4.88-.8,15.12,15.12,0,1,1-12,24.28v21.1a32.69,32.69,0,1,0,15.92-61.24"/></clipPath><clipPath id="clip-path-6"><rect class="cls-1" x="72.77" y="64.22" width="72.84" height="59.09" transform="translate(-2.1 185.02) rotate(-80)"/></clipPath><linearGradient id="무제_그라디언트_3" gradientTransform="matrix(-64.58, 0, 0, 64.58, -4477.77, 106617.25)" xlink:href="#무제_그라디언트"/></defs><g id="레이어_2" data-name="레이어 2"><g id="레이어_1-2" data-name="레이어 1"><rect class="cls-1" width="157" height="157"/><g class="cls-2"><g class="cls-3"><rect class="cls-4" x="18.41" y="57.97" width="58.84" height="70.89" transform="translate(-15.5 9.72) rotate(-10)"/></g></g><g class="cls-5"><g class="cls-6"><rect class="cls-7" x="38.6" y="21.88" width="80.15" height="69.71" transform="translate(-14.66 30.33) rotate(-20)"/></g></g><g class="cls-8"><g class="cls-9"><rect class="cls-10" x="72.77" y="64.22" width="72.84" height="59.09" transform="translate(-2.1 185.02) rotate(-80)"/></g></g></g></g></svg>