<svg xmlns="http://www.w3.org/2000/svg" viewBox="0 0 157 157"><defs><style>.cls-1{fill:none;}.cls-2{fill:#ed3023;}.cls-3{fill:#f4811f;}.cls-4{fill:#fcb811;}</style></defs><g id="레이어_2" data-name="레이어 2"><g id="레이어_1-2" data-name="레이어 1"><rect class="cls-1" width="157" height="157"/><path class="cls-2" d="M16.21,78.29c-.23.12-.23.33,0,.47L35.46,91.49l5.53-26Z"/><path class="cls-3" d="M130.33,65.5h-4.87a2.41,2.41,0,0,0-.87.21L100.16,78.3a.25.25,0,0,0,0,.47l19,12.48a1.93,1.93,0,0,0,.84.24h4.88c.25,0,.28-.11.07-.24L105.54,78.51l24.85-12.8c.22-.11.19-.21-.06-.21"/><path class="cls-2" d="M119.89,65.5H85.94l-5.52,26h34c.26,0,.29-.11.08-.24L95.14,78.51,120,65.71c.22-.11.19-.21-.06-.21"/><path class="cls-4" d="M140.75,65.5h-4.86a2.42,2.42,0,0,0-.88.21L110.59,78.3a.25.25,0,0,0,0,.47l18.94,12.48a1.9,1.9,0,0,0,.85.24h4.87c.26,0,.3-.11.07-.24L116,78.51l24.85-12.8c.23-.11.2-.21-.06-.21"/><path class="cls-2" d="M118.39,48.5H38.46a8.16,8.16,0,0,0-8.33,6.28,4.7,4.7,0,0,0,1.79,4.76l28.72,19,0,0v0l57.77-29.8c.23-.11.21-.2,0-.2"/><path class="cls-2" d="M105.71,108.25h0l-45-29.76h0l-36.77,19a7.67,7.67,0,0,0-3.82,4.76c-.74,3.46,1.18,6.28,5.66,6.28h79.93c.25,0,.29-.12.07-.25"/></g></g></svg>