<svg xmlns="http://www.w3.org/2000/svg" viewBox="0 0 157 157"><defs><style>.cls-1{fill:none;}.cls-2{fill:#81b9d9;}.cls-3{fill:#b1d6a0;}.cls-4{fill:#00a439;}.cls-5{fill:#007db9;}</style></defs><g id="레이어_2" data-name="레이어 2"><g id="레이어_1-2" data-name="레이어 1"><rect class="cls-1" width="157" height="157"/><path class="cls-2" d="M62.68,136.1c-3.25,1.94-6.19,3.08-9.29,3.08a15.26,15.26,0,0,1-15-14.4l15.54-9.26,24.19,10.82Z"/><path class="cls-3" d="M71.91,96.29,60.35,91.18c-5.14-2.3-10-4.23-10-9.91a7.88,7.88,0,0,1,2.3-6L77.06,86l-6,3.5c-1.69,1-2.84,1.93-2.84,3.22s1.58,2.57,3.73,3.55"/><path class="cls-2" d="M83.26,43,71.42,50.13c-1.06.65-2.47,1.66-2.47,3.24,0,1.8,2.75,3.17,5.18,4.32L59.3,51.16c-4.37-1.93-8.73-4.11-8.73-9.37a9.62,9.62,0,0,1,1.67-5.54L84.29,16.67a14.49,14.49,0,0,1,7.56,12.47c0,6.33-3.19,10.56-8.59,13.81"/><path class="cls-3" d="M108.47,66.1l-3,1.67L81.05,57l28.44-17.14c3.84,2.21,7.62,6.58,7.62,12.48,0,6.32-3.11,10.68-8.64,13.79"/><path class="cls-2" d="M87.79,86.89l14.49,6.36c5.43,2.42,7.09,5.28,7.09,8.87a7.58,7.58,0,0,1-2.81,5.53L82.21,96.83l4.11-2.3c3.5-1.92,4.64-3.09,4.64-4.37s-.81-2.2-3.17-3.27"/><path class="cls-4" d="M113.62,140.33c-6.17-4.73-12.75-8-20.75-11.58L56,112.41c-9.28-4.12-15.44-9.63-15.44-18.92,0-9,4.36-13.37,10-16.95l2-1.29a7.83,7.83,0,0,0-2.3,6c0,5.68,4.88,7.61,10,9.91l42.95,18.94c7.47,3.19,14.32,8.71,14.32,18.11,0,5.18-2,9.79-4,12.1"/><path class="cls-5" d="M109.24,106l-2.68,1.67a7.56,7.56,0,0,0,2.81-5.52c0-3.61-1.67-6.46-7.09-8.88L56.36,73c-9.28-4.1-15-9.4-15-18.63,0-8.5,4.24-14.06,10.93-18.16a9.66,9.66,0,0,0-1.67,5.54c0,5.27,4.37,7.44,8.73,9.37l44.64,19.71c8.12,3.58,14.7,9,14.7,18.91,0,7.73-3.61,12.62-9.4,16.21"/></g></g></svg>