<svg xmlns="http://www.w3.org/2000/svg" xmlns:xlink="http://www.w3.org/1999/xlink" viewBox="0 0 157 157"><defs><style>.cls-1{fill:none;}.cls-2{clip-path:url(#clip-path);}.cls-3{clip-path:url(#clip-path-2);}.cls-4{fill:url(#radial-gradient);}.cls-5{clip-path:url(#clip-path-3);}.cls-6{clip-path:url(#clip-path-4);}.cls-7{fill:url(#radial-gradient-2);}</style><clipPath id="clip-path"><path class="cls-1" d="M75.92,21.66a56.87,56.87,0,1,0,2.63-.06c-.87,0-1.75,0-2.63.06"/></clipPath><clipPath id="clip-path-2"><polyline class="cls-1" points="20.25 21.6 136.76 21.6 136.76 136.76 20.25 136.76 20.25 21.6"/></clipPath><radialGradient id="radial-gradient" cx="-407.64" cy="345.19" r="2.99" gradientTransform="translate(7459.73 -6184.34) scale(18.09)" gradientUnits="userSpaceOnUse"><stop offset="0" stop-color="#fff"/><stop offset="1" stop-color="#d2a145"/></radialGradient><clipPath id="clip-path-3"><path class="cls-1" d="M65.5,127.38A36.12,36.12,0,0,1,44.9,119a39.57,39.57,0,0,1-11.7-18.87c-1.88-6.51-2.66-14.11.44-13.51,1,.17,2.6,4.36,4.39,7.41A20,20,0,0,0,42.78,100c.64.48,2.82-4.35,6-7.1,1.83-1.53,3.83-2,4.18,2.49.38,5.55-.62,12.16,1,12.16s4.92-1.14,12.42-1.78c2.84-.24,4.45.29,1.76,4.08a28.52,28.52,0,0,1-7.41,7.64c6.39,6,14,5.25,14.19,7.79.08,1.46-2.77,2.27-6.52,2.27a26.68,26.68,0,0,1-2.9-.16M87,73.68a9.15,9.15,0,0,1-7-6.53,19.16,19.16,0,0,1-.2-7.25c.79-6.3,2.49-9.25,4.42-14.14,2.61-6.55-3.71-10.39-2.69-12.79,1.43-3.26,6,.89,11,1.19,4.35.23,7,0,10.33.48,4.49.58,9.87,2.11,12.26,4.92,2.18,2.57-1.18,5.7-5.18,3.74-2.95-1.44-6.65-.56-4.48,2.51,2.61,2.91,3.86,3,6.54,3.69,7.34,2,7.5,9,2.51,12.61-5.64,4.15-11.39,2.43-13.67-5.69-1.16-4.06-4-6.11-7-5s-1.18,6.48,1,11.42C98.71,72.69,91,73.72,88,73.72c-.47,0-.82,0-1,0m-4.22,55.55c-.05-1.3,1.85-1.63,1.85-1.63,17.06-3.37,12.07-14.56,6-20.26C88.11,105,64.37,84.45,64.37,84.45,41.73,65,43.54,49.75,43.54,49.75,44.66,31,61,26.38,73.44,27.46c1.44.12,2.26,1,2,2.22s-2.19,1.4-2.19,1.4c-3.95.24-7.48.63-10.16,2.45-10,6.73-7.06,18.16,6.27,30.9,1.68,1.59,3.46,3.29,5.31,5,0,0,2.65,2.35,8,7.42C92.91,86.3,98.52,91.39,98.52,91.39c18.07,15,11.88,28.81,5,33.58-5.28,3.65-11.11,5.36-18.76,5.78h-.2a1.71,1.71,0,0,1-1.8-1.53M75.87,20.89a57.89,57.89,0,1,0,2.65-.05c-.87,0-1.76,0-2.65.05"/></clipPath><clipPath id="clip-path-4"><polyline class="cls-1" points="19.45 20.84 137.54 20.84 137.54 137.54 19.45 137.54 19.45 20.84"/></clipPath><radialGradient id="radial-gradient-2" cx="-413.04" cy="354.27" r="2.99" gradientTransform="translate(16797.25 -14268.6) scale(40.45)" gradientUnits="userSpaceOnUse"><stop offset="0" stop-color="#27baed"/><stop offset="0.22" stop-color="#0092d2"/><stop offset="0.29" stop-color="#007dc2"/><stop offset="0.38" stop-color="#006bb5"/><stop offset="0.47" stop-color="#0060ae"/><stop offset="0.57" stop-color="#005dab"/><stop offset="1" stop-color="#005dab"/></radialGradient></defs><g id="레이어_2" data-name="레이어 2"><g id="레이어_1-2" data-name="레이어 1"><rect class="cls-1" width="157" height="157"/><g class="cls-2"><g class="cls-3"><rect class="cls-4" x="20.24" y="21.6" width="116.52" height="115.16"/></g></g><g class="cls-5"><g class="cls-6"><rect class="cls-7" x="19.45" y="20.84" width="118.09" height="116.7"/></g></g></g></g></svg>