<svg xmlns="http://www.w3.org/2000/svg" viewBox="0 0 157 157"><defs><style>.cls-1{fill:none;}.cls-2{fill:#0068b6;}</style></defs><g id="레이어_2" data-name="레이어 2"><g id="레이어_1-2" data-name="레이어 1"><rect class="cls-1" width="157" height="157"/><path class="cls-2" d="M66.19,61.05a3.72,3.72,0,1,0-3.73-3.7A3.72,3.72,0,0,0,66.19,61.05Z"/><path class="cls-2" d="M30.42,79.7A3.73,3.73,0,1,0,26.68,76,3.73,3.73,0,0,0,30.42,79.7Z"/><path class="cls-2" d="M123.68,78.24s-1.56,4.5,1,6.58c0,0,3.45,3.61-.68,2.92,0,0-13.33-1.72-24.9,1.92a19,19,0,0,0-10.55,5.88s-4.49,4.74,1.22,8.81c0,0,4,3.28-1.56,3.28,0,0-18.16,2.27-29.72-4.15,0,0-10.56-5.7-1-12.36,0,0,4.32-3.38,12.6-4.74a73.22,73.22,0,0,1,27-.27S81,78.44,97.05,70.3c0,0,10-5.7,30.07-3.63a42.36,42.36,0,0,1,10.22,1.61c-6.77-18.71-30.54-32.54-58.89-32.54-32.64,0-59.21,18.31-60.76,41.3.38-1.05,3.7-8.17,23.54-9.75a93.2,93.2,0,0,1,19.86,1.2s-17.45-7.27-.94-15.84c0,0,13.65-7.94,41.31-2.23,0,0,3.2,1.22,0,2.51,0,0-11.41,2.15-14.16,8.73a6.28,6.28,0,0,0,1.63,6.64s2.42,1.83-1.74,1.75c0,0-18-2.76-31.36,5.08,0,0-9.67,5.19-2.06,12.12,0,0,2.94,1.89-.87,2.41,0,0-27.31,3.64-35-8.47l-.24-.41c1.22,23.15,27.92,40.48,60.79,40.48,33.62,0,60.89-18.14,60.89-42.11a31.35,31.35,0,0,0-1.22-8.66C138,70.49,129.18,71.2,123.68,78.24Z"/><path class="cls-2" d="M66.8,89.66a3.73,3.73,0,1,0,0,7.45,3.73,3.73,0,1,0,0-7.45Z"/><path class="cls-2" d="M102.66,71.24A3.73,3.73,0,1,0,106.38,75,3.73,3.73,0,0,0,102.66,71.24Z"/></g></g></svg>