<svg xmlns="http://www.w3.org/2000/svg" xmlns:xlink="http://www.w3.org/1999/xlink" viewBox="0 0 157 157"><defs><style>.cls-1{fill:none;}.cls-2{fill:#fff;}.cls-3{fill:#007bc6;}.cls-4{clip-path:url(#clip-path);}.cls-5{fill:#007dc7;}.cls-6{fill:#007fc9;}.cls-7{fill:#0080ca;}.cls-8{fill:#0081cb;}.cls-9{fill:#0083cc;}.cls-10{fill:#0085ce;}.cls-11{fill:#0087cf;}.cls-12{fill:#0089d1;}.cls-13{fill:#008bd2;}.cls-14{fill:#008dd3;}.cls-15{fill:#008fd5;}.cls-16{fill:#0091d6;}.cls-17{fill:#0093d7;}.cls-18{fill:#0095d8;}.cls-19{fill:#0098da;}.cls-20{fill:#009adb;}.cls-21{fill:#009cdd;}.cls-22{fill:#009fde;}.cls-23{fill:#00a1df;}.cls-24{fill:#00a3e1;}.cls-25{fill:#00a5e2;}.cls-26{fill:#00a7e3;}.cls-27{fill:#00aae4;}.cls-28{fill:#00ace6;}.cls-29{fill:#00afe7;}.cls-30{fill:#00b1e9;}.cls-31{fill:#10b4ea;}.cls-32{fill:#18b6ec;}.cls-33{fill:#24b9ed;}.cls-34{fill:#2dbbee;}.cls-35{fill:#36bdef;}.cls-36{fill:#43bfef;}.cls-37{fill:#50c1f0;}.cls-38{fill:#5ac3f0;}.cls-39{fill:#65c6f1;}.cls-40{fill:#6dc8f2;}.cls-41{fill:#74caf2;}.cls-42{fill:#7dccf3;}.cls-43{fill:#83cff3;}.cls-44{fill:#8ad1f4;}.cls-45{fill:#91d3f4;}.cls-46{fill:#98d5f5;}.cls-47{fill:#9fd8f6;}.cls-48{fill:#a5daf6;}.cls-49{fill:#aadcf7;}.cls-50{fill:#b1dff7;}.cls-51{fill:#b6e1f8;}.cls-52{fill:#bbe3f8;}.cls-53{fill:#c1e5f9;}.cls-54{fill:#c6e7f9;}.cls-55{fill:#cbe9fa;}.cls-56{fill:#d0ebfa;}.cls-57{fill:#d5edfa;}.cls-58{fill:#dbeffb;}.cls-59{fill:#dff1fb;}.cls-60{fill:#e4f3fc;}.cls-61{fill:#e9f5fc;}.cls-62{fill:#edf7fd;}.cls-63{fill:#f1f9fd;}.cls-64{fill:#f7fbfd;}.cls-65{fill:#fbfdff;}</style><clipPath id="clip-path"><path class="cls-1" d="M78.51,133.84A55.54,55.54,0,1,0,23,78.3,55.54,55.54,0,0,0,78.51,133.84Z"/></clipPath></defs><g id="레이어_2" data-name="레이어 2"><g id="레이어_1-2" data-name="레이어 1"><rect class="cls-1" width="157" height="157"/><path class="cls-2" d="M136.77,78.5A58.27,58.27,0,1,1,78.51,20.22,58.28,58.28,0,0,1,136.77,78.5Z"/><path class="cls-3" d="M78.51,133.84A55.54,55.54,0,1,0,23,78.3,55.54,55.54,0,0,0,78.51,133.84Z"/><g class="cls-4"><path class="cls-3" d="M78.72,105.1c24.41,0,45.33,6.8,54.3,16.47a56.23,56.23,0,0,0,4.65-22.48c0-31.87-26.41-57.69-58.95-57.68S19.78,67.23,19.78,99.1a56.19,56.19,0,0,0,4.66,22.47C33.38,111.9,54.33,105.1,78.72,105.1Z"/><path class="cls-5" d="M78.72,105.16c24.34,0,45.21,6.75,54.15,16.34a55.39,55.39,0,0,0,4.64-22.3c0-31.62-26.34-57.3-58.79-57.3s-58.8,25.69-58.8,57.31a55.49,55.49,0,0,0,4.65,22.29C33.49,111.91,54.38,105.16,78.72,105.16Z"/><path class="cls-6" d="M78.71,105.23c24.28,0,45.1,6.68,54,16.2a54.79,54.79,0,0,0,4.64-22.13c0-31.35-26.28-56.91-58.65-56.91S20.07,68,20.07,99.32a54.69,54.69,0,0,0,4.64,22.11C33.6,111.91,54.44,105.23,78.71,105.23Z"/><path class="cls-7" d="M78.7,105.29c24.22,0,45,6.63,53.87,16.07a54,54,0,0,0,4.63-21.94c0-31.1-26.21-56.54-58.5-56.53S20.21,68.32,20.21,99.43a54.07,54.07,0,0,0,4.63,21.93C33.71,111.92,54.49,105.29,78.7,105.29Z"/><path class="cls-8" d="M78.69,105.35c24.16,0,44.87,6.57,53.74,15.94A53.25,53.25,0,0,0,137,99.53c0-30.85-26.14-56.15-58.35-56.15S20.36,68.69,20.36,99.54A53.37,53.37,0,0,0,25,121.29C33.82,111.92,54.55,105.35,78.69,105.35Z"/><path class="cls-9" d="M78.69,105.41c24.09,0,44.75,6.52,53.59,15.8a52.52,52.52,0,0,0,4.6-21.57c0-30.6-26.07-55.77-58.19-55.77S20.5,69.05,20.5,99.65a52.63,52.63,0,0,0,4.6,21.56C33.93,111.93,54.6,105.41,78.69,105.41Z"/><path class="cls-10" d="M78.68,105.47c24,0,44.64,6.47,53.45,15.68a51.8,51.8,0,0,0,4.59-21.41c0-30.33-26-55.38-58-55.38s-58,25-58,55.4a52.06,52.06,0,0,0,4.58,21.39C34,111.94,54.66,105.47,78.68,105.47Z"/><path class="cls-11" d="M78.67,105.53c24,0,44.52,6.41,53.32,15.54a51.26,51.26,0,0,0,4.57-21.22c0-30.07-25.93-55-57.89-55s-57.88,24.93-57.88,55a51.22,51.22,0,0,0,4.58,21.21C34.15,111.94,54.71,105.53,78.67,105.53Z"/><path class="cls-12" d="M78.67,105.59c23.9,0,44.4,6.36,53.17,15.41a50.43,50.43,0,0,0,4.57-21c0-29.82-25.87-54.62-57.74-54.61S20.93,70.15,20.93,100a50.53,50.53,0,0,0,4.57,21C34.25,112,54.77,105.59,78.67,105.59Z"/><path class="cls-13" d="M78.66,105.66c23.84,0,44.29,6.3,53,15.27a49.66,49.66,0,0,0,4.55-20.86c0-29.56-25.79-54.23-57.58-54.23S21.08,70.51,21.08,100.08a49.89,49.89,0,0,0,4.55,20.85C34.36,112,54.82,105.66,78.66,105.66Z"/><path class="cls-14" d="M78.65,105.72c23.78,0,44.17,6.24,52.9,15.14a49.14,49.14,0,0,0,4.54-20.68c0-29.31-25.73-53.85-57.44-53.85S21.22,70.88,21.22,100.19a49.25,49.25,0,0,0,4.54,20.67C34.47,112,54.88,105.72,78.65,105.72Z"/><path class="cls-15" d="M78.64,105.78c23.72,0,44.06,6.19,52.76,15a48.39,48.39,0,0,0,4.53-20.5c0-29.05-25.66-53.47-57.29-53.47S21.37,71.24,21.37,100.3a48.64,48.64,0,0,0,4.52,20.49C34.58,112,54.94,105.78,78.64,105.78Z"/><path class="cls-16" d="M78.64,105.84c23.65,0,43.94,6.13,52.61,14.88a47.75,47.75,0,0,0,4.52-20.31c0-28.81-25.59-53.09-57.13-53.09S21.51,71.61,21.51,100.41A47.82,47.82,0,0,0,26,120.72C34.69,112,55,105.84,78.64,105.84Z"/><path class="cls-17" d="M78.63,105.9c23.59,0,43.83,6.08,52.47,14.75a47,47,0,0,0,4.51-20.14c0-28.54-25.52-52.7-57-52.7s-57,24.16-57,52.71a47,47,0,0,0,4.51,20.13C34.8,112,55.05,105.9,78.63,105.9Z"/><path class="cls-18" d="M78.62,106c23.53,0,43.71,6,52.34,14.61a46.49,46.49,0,0,0,4.49-20c0-28.29-25.45-52.32-56.83-52.32s-56.82,24-56.82,52.33a46.42,46.42,0,0,0,4.49,20C34.91,112,55.1,106,78.62,106Z"/><path class="cls-19" d="M78.61,106c23.47,0,43.6,6,52.2,14.48a45.72,45.72,0,0,0,4.48-19.78c0-28-25.38-51.94-56.68-51.93S21.94,72.7,21.94,100.74a45.82,45.82,0,0,0,4.48,19.77C35,112,55.16,106,78.61,106Z"/><path class="cls-20" d="M78.61,106.09c23.4,0,43.48,5.91,52.06,14.34a45,45,0,0,0,4.46-19.59c0-27.78-25.31-51.55-56.52-51.55S22.08,73.07,22.08,100.85a45.09,45.09,0,0,0,4.47,19.58C35.12,112,55.21,106.09,78.61,106.09Z"/><path class="cls-21" d="M78.6,106.15c23.34,0,43.37,5.86,51.92,14.21A44.41,44.41,0,0,0,135,101c0-27.52-25.25-51.17-56.38-51.17S22.23,73.43,22.23,101a44.5,44.5,0,0,0,4.45,19.4C35.23,112,55.27,106.15,78.6,106.15Z"/><path class="cls-22" d="M78.59,106.21c23.28,0,43.25,5.8,51.78,14.08a43.66,43.66,0,0,0,4.45-19.23c0-27.27-25.18-50.79-56.23-50.79S22.37,73.8,22.37,101.07a43.75,43.75,0,0,0,4.45,19.22C35.34,112,55.32,106.21,78.59,106.21Z"/><path class="cls-23" d="M78.59,106.27c23.21,0,43.13,5.75,51.64,14a43.15,43.15,0,0,0,4.43-19c0-27-25.11-50.41-56.07-50.41s-56.07,23.4-56.07,50.42a43.13,43.13,0,0,0,4.43,19C35.45,112,55.38,106.27,78.59,106.27Z"/><path class="cls-24" d="M78.58,106.34c23.15,0,43,5.68,51.5,13.81a42.43,42.43,0,0,0,4.42-18.87c0-26.75-25-50-55.92-50s-55.92,23.27-55.92,50a42.49,42.49,0,0,0,4.42,18.86C35.56,112,55.44,106.34,78.58,106.34Z"/><path class="cls-25" d="M78.57,106.4c23.09,0,42.91,5.63,51.36,13.68a41.86,41.86,0,0,0,4.41-18.69c0-26.5-25-49.64-55.77-49.64S22.8,74.89,22.8,101.4a41.92,41.92,0,0,0,4.41,18.68C35.67,112,55.49,106.4,78.57,106.4Z"/><path class="cls-26" d="M78.56,106.46c23,0,42.79,5.58,51.23,13.55a41.22,41.22,0,0,0,4.39-18.51c0-26.24-24.9-49.26-55.62-49.26S23,75.26,23,101.5A41.29,41.29,0,0,0,27.34,120C35.78,112,55.55,106.46,78.56,106.46Z"/><path class="cls-27" d="M78.56,106.52c23,0,42.67,5.52,51.08,13.42A40.49,40.49,0,0,0,134,101.61c0-26-24.83-48.88-55.46-48.88S23.09,75.62,23.09,101.61a40.6,40.6,0,0,0,4.39,18.33C35.89,112,55.6,106.52,78.56,106.52Z"/><path class="cls-28" d="M78.55,106.58c22.9,0,42.56,5.47,50.94,13.29a39.9,39.9,0,0,0,4.37-18.15c0-25.73-24.75-48.49-55.31-48.49S23.23,76,23.23,101.72a40,40,0,0,0,4.38,18.15C36,112.05,55.66,106.58,78.55,106.58Z"/><path class="cls-29" d="M78.54,106.64c22.84,0,42.45,5.41,50.81,13.16a39.31,39.31,0,0,0,4.36-18c0-25.48-24.7-48.11-55.17-48.11S23.38,76.35,23.38,101.83a39.4,39.4,0,0,0,4.36,18C36.1,112.05,55.71,106.64,78.54,106.64Z"/><path class="cls-30" d="M78.53,106.71c22.78,0,42.33,5.35,50.67,13a38.65,38.65,0,0,0,4.35-17.78c0-25.22-24.63-47.73-55-47.73s-55,22.51-55,47.73a38.74,38.74,0,0,0,4.35,17.78C36.21,112.06,55.77,106.71,78.53,106.71Z"/><path class="cls-31" d="M78.53,106.77c22.71,0,42.21,5.3,50.52,12.88a37.94,37.94,0,0,0,4.34-17.6c0-25-24.55-47.35-54.86-47.34S23.67,77.08,23.67,102.05A38.14,38.14,0,0,0,28,119.65C36.32,112.07,55.82,106.77,78.53,106.77Z"/><path class="cls-32" d="M78.52,106.83c22.65,0,42.1,5.25,50.38,12.75a37.24,37.24,0,0,0,4.33-17.42c0-24.71-24.49-47-54.71-47s-54.71,22.25-54.71,47a37.59,37.59,0,0,0,4.32,17.42C36.43,112.08,55.88,106.83,78.52,106.83Z"/><path class="cls-33" d="M78.52,106.89c22.58,0,42,5.19,50.24,12.62a36.77,36.77,0,0,0,4.31-17.24c0-24.46-24.41-46.58-54.55-46.58S24,77.81,24,102.27a36.87,36.87,0,0,0,4.32,17.24C36.54,112.08,55.93,106.89,78.52,106.89Z"/><path class="cls-34" d="M78.51,107c22.52,0,41.86,5.14,50.1,12.49a36.08,36.08,0,0,0,4.3-17.06c0-24.2-24.34-46.2-54.4-46.2s-54.41,22-54.41,46.2a36.29,36.29,0,0,0,4.3,17.06C36.65,112.09,56,107,78.51,107Z"/><path class="cls-35" d="M78.5,107c22.46,0,41.75,5.07,50,12.35a35.51,35.51,0,0,0,4.29-16.88c0-23.95-24.27-45.82-54.25-45.82S24.24,78.54,24.24,102.49a35.71,35.71,0,0,0,4.29,16.88C36.76,112.09,56.05,107,78.5,107Z"/><path class="cls-36" d="M78.5,107.16c22.43,0,41.69,5,49.9,12.27a35.19,35.19,0,0,0,4.28-16.77c0-23.79-24.25-45.53-54.18-45.53S24.31,78.87,24.31,102.66a35.28,35.28,0,0,0,4.29,16.77C36.81,112.2,56.08,107.16,78.5,107.16Z"/><path class="cls-37" d="M78.5,107.3c22.4,0,41.64,5,49.83,12.19a34.76,34.76,0,0,0,4.28-16.66c0-23.63-24.22-45.25-54.11-45.25S24.39,79.2,24.39,102.83a35,35,0,0,0,4.27,16.66C36.87,112.31,56.1,107.3,78.5,107.3Z"/><path class="cls-38" d="M78.5,107.44c22.37,0,41.58,5,49.76,12.11A34.33,34.33,0,0,0,132.53,103c0-23.47-24.18-45-54-45s-54,21.5-54,45a34.55,34.55,0,0,0,4.27,16.55C36.93,112.42,56.14,107.44,78.5,107.44Z"/><path class="cls-39" d="M78.5,107.58c22.33,0,41.52,5,49.7,12a34.15,34.15,0,0,0,4.26-16.44c0-23.32-24.15-44.69-54-44.69s-54,21.37-54,44.69a34.13,34.13,0,0,0,4.27,16.44C37,112.53,56.17,107.58,78.5,107.58Z"/><path class="cls-40" d="M78.5,107.72c22.31,0,41.46,4.91,49.63,12a33.76,33.76,0,0,0,4.26-16.33c0-23.16-24.12-44.4-53.89-44.4s-53.89,21.24-53.89,44.4a33.83,33.83,0,0,0,4.25,16.33C37,112.63,56.2,107.72,78.5,107.72Z"/><path class="cls-41" d="M78.5,107.86c22.27,0,41.41,4.89,49.56,11.88a33.39,33.39,0,0,0,4.25-16.23c0-23-24.08-44.12-53.81-44.12S24.68,80.51,24.68,103.51a33.48,33.48,0,0,0,4.25,16.23C37.09,112.75,56.23,107.87,78.5,107.86Z"/><path class="cls-42" d="M78.5,108c22.24,0,41.35,4.85,49.49,11.79a32.94,32.94,0,0,0,4.25-16.11c0-22.86-24.05-43.85-53.74-43.85s-53.75,21-53.75,43.85A33,33,0,0,0,29,119.8C37.15,112.86,56.26,108,78.5,108Z"/><path class="cls-43" d="M78.5,108.15c22.22,0,41.29,4.81,49.42,11.71a32.66,32.66,0,0,0,4.25-16c0-22.7-24-43.56-53.67-43.56S24.83,81.16,24.83,103.86a32.83,32.83,0,0,0,4.23,16C37.21,113,56.29,108.15,78.5,108.15Z"/><path class="cls-44" d="M78.5,108.29c22.18,0,41.24,4.78,49.36,11.63A32.34,32.34,0,0,0,132.09,104c0-22.54-24-43.28-53.59-43.28S24.9,81.49,24.9,104a32.42,32.42,0,0,0,4.23,15.89C37.27,113.07,56.32,108.29,78.5,108.29Z"/><path class="cls-45" d="M78.5,108.43c22.15,0,41.18,4.75,49.29,11.55A31.93,31.93,0,0,0,132,104.2c0-22.39-24-43-53.52-43S25,81.82,25,104.2A32,32,0,0,0,29.2,120C37.32,113.18,56.35,108.43,78.5,108.43Z"/><path class="cls-46" d="M78.5,108.57c22.12,0,41.12,4.72,49.22,11.47A31.52,31.52,0,0,0,132,104.37C132,82.14,108,61.65,78.5,61.65S25.05,82.14,25.05,104.37A31.71,31.71,0,0,0,29.26,120C37.38,113.29,56.38,108.57,78.5,108.57Z"/><path class="cls-47" d="M78.5,108.71c22.09,0,41.06,4.69,49.15,11.39a31.24,31.24,0,0,0,4.22-15.56c0-22.07-23.89-42.43-53.37-42.43S25.12,82.47,25.12,104.54a31.27,31.27,0,0,0,4.21,15.56C37.43,113.4,56.41,108.71,78.5,108.71Z"/><path class="cls-48" d="M78.5,108.85c22.06,0,41,4.66,49.08,11.31a30.86,30.86,0,0,0,4.22-15.45c0-21.91-23.86-42.15-53.3-42.15S25.19,82.8,25.19,104.71a31,31,0,0,0,4.21,15.46C37.49,113.51,56.44,108.86,78.5,108.85Z"/><path class="cls-49" d="M78.5,109c22,0,41,4.63,49,11.24a30.58,30.58,0,0,0,4.2-15.35C131.72,83.12,107.9,63,78.5,63S25.27,83.12,25.27,104.88a30.64,30.64,0,0,0,4.19,15.35C37.55,113.62,56.47,109,78.5,109Z"/><path class="cls-50" d="M78.5,109.13c22,0,40.89,4.6,49,11.16a30.28,30.28,0,0,0,4.2-15.24c0-21.6-23.8-41.58-53.15-41.58s-53.16,20-53.16,41.58a30.27,30.27,0,0,0,4.19,15.24C37.6,113.73,56.5,109.14,78.5,109.13Z"/><path class="cls-51" d="M78.5,109.27c22,0,40.83,4.56,48.89,11.08a30,30,0,0,0,4.19-15.12c0-21.45-23.77-41.31-53.08-41.31S25.41,83.78,25.41,105.23a29.84,29.84,0,0,0,4.19,15.12C37.66,113.83,56.53,109.28,78.5,109.27Z"/><path class="cls-52" d="M78.5,109.41c21.94,0,40.78,4.53,48.82,11a29.57,29.57,0,0,0,4.19-15c0-21.29-23.74-41-53-41s-53,19.74-53,41a29.65,29.65,0,0,0,4.17,15C37.71,113.94,56.56,109.42,78.5,109.41Z"/><path class="cls-53" d="M78.5,109.56c21.91,0,40.72,4.49,48.75,10.91a29.19,29.19,0,0,0,4.18-14.9c0-21.14-23.7-40.75-52.93-40.75S25.56,84.43,25.56,105.57a29.31,29.31,0,0,0,4.17,14.91C37.77,114.05,56.59,109.56,78.5,109.56Z"/><path class="cls-54" d="M78.5,109.7c21.88,0,40.66,4.46,48.68,10.83a28.9,28.9,0,0,0,4.18-14.79c0-21-23.67-40.47-52.86-40.47S25.63,84.76,25.63,105.74a28.92,28.92,0,0,0,4.17,14.8C37.83,114.16,56.62,109.7,78.5,109.7Z"/><path class="cls-55" d="M78.5,109.84c21.85,0,40.6,4.43,48.61,10.75a28.52,28.52,0,0,0,4.17-14.68c0-20.82-23.63-40.18-52.78-40.18S25.71,85.09,25.71,105.91a28.52,28.52,0,0,0,4.16,14.69C37.88,114.27,56.65,109.84,78.5,109.84Z"/><path class="cls-56" d="M78.5,110c21.82,0,40.55,4.4,48.55,10.68a28.28,28.28,0,0,0,4.16-14.58c0-20.67-23.6-39.9-52.71-39.9s-52.72,19.23-52.72,39.9a28.25,28.25,0,0,0,4.15,14.58C37.94,114.38,56.68,110,78.5,110Z"/><path class="cls-57" d="M78.5,110.12c21.79,0,40.49,4.37,48.48,10.6a27.87,27.87,0,0,0,4.16-14.47c0-20.51-23.57-39.61-52.64-39.61s-52.65,19.1-52.65,39.61A27.86,27.86,0,0,0,30,120.72C38,114.49,56.72,110.13,78.5,110.12Z"/><path class="cls-58" d="M78.5,110.26c21.76,0,40.43,4.34,48.41,10.52a27.61,27.61,0,0,0,4.16-14.36c0-20.36-23.54-39.33-52.57-39.33s-52.57,19-52.57,39.33a27.58,27.58,0,0,0,4.13,14.36C38.05,114.6,56.74,110.27,78.5,110.26Z"/><path class="cls-59" d="M78.5,110.4c21.73,0,40.38,4.3,48.34,10.44A27.22,27.22,0,0,0,131,106.59c0-20.2-23.51-39-52.49-39S26,86.4,26,106.59a27.26,27.26,0,0,0,4.13,14.25C38.11,114.7,56.77,110.41,78.5,110.4Z"/><path class="cls-60" d="M78.5,110.54c21.7,0,40.32,4.27,48.28,10.36a26.94,26.94,0,0,0,4.14-14.13c0-20-23.48-38.78-52.42-38.78S26.07,86.72,26.07,106.76a27,27,0,0,0,4.13,14.15C38.17,114.81,56.81,110.55,78.5,110.54Z"/><path class="cls-61" d="M78.5,110.68c21.67,0,40.26,4.24,48.21,10.28a26.65,26.65,0,0,0,4.13-14c0-19.9-23.44-38.49-52.34-38.49s-52.36,18.6-52.36,38.48a26.57,26.57,0,0,0,4.13,14C38.22,114.92,56.83,110.69,78.5,110.68Z"/><path class="cls-62" d="M78.5,110.83c21.64,0,40.21,4.2,48.14,10.19a26.27,26.27,0,0,0,4.13-13.91c0-19.74-23.41-38.21-52.27-38.21S26.22,87.38,26.22,107.1A26.29,26.29,0,0,0,30.33,121C38.28,115,56.86,110.84,78.5,110.83Z"/><path class="cls-63" d="M78.5,111c21.61,0,40.15,4.17,48.07,10.11a25.91,25.91,0,0,0,4.13-13.81c0-19.57-23.38-37.92-52.2-37.92S26.29,87.71,26.29,107.27a25.92,25.92,0,0,0,4.11,13.82C38.34,115.14,56.9,111,78.5,111Z"/><path class="cls-64" d="M78.5,111.11c21.58,0,40.09,4.14,48,10a25.62,25.62,0,0,0,4.13-13.7C130.63,88,107.28,69.8,78.5,69.8S26.36,88,26.36,107.45a25.54,25.54,0,0,0,4.11,13.7C38.39,115.25,56.92,111.12,78.5,111.11Z"/><path class="cls-65" d="M78.5,111.25c21.55,0,40,4.11,47.94,10a25.38,25.38,0,0,0,4.11-13.59c0-19.27-23.31-37.36-52.05-37.36s-52.06,18.1-52.06,37.36a25.24,25.24,0,0,0,4.09,13.59C38.45,115.36,57,111.26,78.5,111.25Z"/><path class="cls-2" d="M78.5,111.39c21.52,0,40,4.08,47.87,9.88a25,25,0,0,0,4.11-13.48c0-19.11-23.28-37.08-52-37.08s-52,18-52,37.08a24.9,24.9,0,0,0,4.09,13.48C38.5,115.47,57,111.4,78.5,111.39Z"/></g><path class="cls-3" d="M78.5,92.32c-18.83,0-36.3,3.19-50.73,8.59a55.56,55.56,0,0,0,101.48,0C114.82,95.51,97.33,92.32,78.5,92.32Z"/></g></g></svg>