<svg width="80" height="80" fill="none" xmlns="http://www.w3.org/2000/svg"><circle cx="40" cy="40" r="40" fill="#EFEFEF"/><path fill-rule="evenodd" clip-rule="evenodd" d="M16 72.003V25a6 6 0 0 1 6-6h37a6 6 0 0 1 6 6v46.227A39.832 39.832 0 0 1 40 80a39.823 39.823 0 0 1-24-7.997Z" fill="#fff"/><rect x="20" y="23" width="41" height="43" rx="2" fill="#F1F3F5"/><circle cx="57.5" cy="24.5" r="9" fill="#fff" stroke="#06BE34"/><path d="M53.947 23.313a3.56 3.56 0 0 1 3.578-3.563c1.959.015 3.527 1.643 3.527 3.607v.351c0 1.772.371 2.8.698 3.365a.395.395 0 0 1-.341.594H53.59a.396.396 0 0 1-.341-.594c.326-.564.697-1.593.697-3.365v-.395Z" fill="#FAB005" stroke="#FAB005" stroke-linecap="round" stroke-linejoin="round"/><path d="M55.917 27.666v.396a1.583 1.583 0 0 0 3.166 0v-.396" stroke="#FAB005" stroke-linecap="round" stroke-linejoin="round"/><rect x="24.25" y="42.25" width="32.5" height="6.5" rx="3.25" fill="#fff" stroke="#2DB400" stroke-width=".5"/><path d="M29.036 44v1.472L28.062 44H27v2.93h1.063v-1.484l.973 1.485H30.1V44h-1.063Z" fill="#2DB400"/><rect x="23" y="26" width="4" height=".6" rx=".3" fill="#BEBEBE"/><rect x="23" y="27.2" width="4" height=".6" rx=".3" fill="#BEBEBE"/><rect x="23" y="28.4" width="4" height=".6" rx=".3" fill="#BEBEBE"/><path fill-rule="evenodd" clip-rule="evenodd" d="M20 74.625V45a6 6 0 0 1 6-6h28.967a6 6 0 0 1 6 6v29.104C55.242 77.794 47.974 80 40.066 80 32.537 80 25.589 78 20 74.625Z" fill="#F1F3F5"/><rect x="24.25" y="41.25" width="32.5" height="6.5" rx="3.25" fill="#fff" stroke="#2DB400" stroke-width=".5"/><path d="M29.036 43v1.472L28.062 43H27v2.93h1.063v-1.484l.973 1.485H30.1V43h-1.063Z" fill="#2DB400"/></svg>