<svg width="80" height="80" fill="none" xmlns="http://www.w3.org/2000/svg"><circle cx="40" cy="40" r="40" fill="#EFEFEF"/><path fill-rule="evenodd" clip-rule="evenodd" d="M16 72.003V25a6 6 0 0 1 6-6h37a6 6 0 0 1 6 6v46.227A39.832 39.832 0 0 1 40 80a39.823 39.823 0 0 1-24-7.997Z" fill="#fff"/><rect x="20" y="23" width="41" height="45" rx="2" fill="#06BE34"/><path d="M30.369 43.756a3.374 3.374 0 1 1 1.875 1.875v0l-.619.619H30.5v1.125h-1.125V48.5H27.5v-1.875l2.869-2.869Z" stroke="#fff" stroke-linecap="round" stroke-linejoin="round"/><path d="M34.75 41.563a.312.312 0 1 1-.625 0 .312.312 0 0 1 .625 0Z" fill="#fff" stroke="#fff" stroke-width=".125"/><path d="M42.09 43.904h.762l-.069-1.455 1.22.791.382-.664-1.309-.654 1.309-.664-.381-.664-1.22.79.068-1.454h-.762l.068 1.455-1.23-.791-.371.664 1.298.664-1.298.654.37.664 1.231-.79-.068 1.454Zm4.941 0h.762l-.068-1.455 1.22.791.381-.664-1.308-.654 1.308-.664-.38-.664-1.221.79.068-1.454h-.762l.069 1.455-1.23-.791-.372.664 1.299.664-1.299.654.371.664 1.23-.79-.068 1.454Zm4.942 0h.761l-.068-1.455 1.22.791.382-.664-1.309-.654 1.309-.664-.381-.664-1.221.79.068-1.454h-.761l.068 1.455-1.23-.791-.371.664 1.298.664-1.298.654.37.664 1.231-.79-.068 1.454Z" fill="#fff"/></svg>