<svg width="80" height="80" fill="none" xmlns="http://www.w3.org/2000/svg"><circle cx="40" cy="40" r="40" fill="#EFEFEF"/><path fill-rule="evenodd" clip-rule="evenodd" d="M16 72.003V25a6 6 0 0 1 6-6h37a6 6 0 0 1 6 6v46.227A39.832 39.832 0 0 1 40 80a39.823 39.823 0 0 1-24-7.997Z" fill="#fff"/><rect x="20" y="23" width="41" height="43" rx="2" fill="#F1F3F5"/><circle cx="57.5" cy="24.5" r="9" fill="#fff" stroke="#06BE34"/><path d="M53.947 23.313a3.56 3.56 0 0 1 3.578-3.563c1.959.015 3.527 1.643 3.527 3.607v.351c0 1.772.371 2.8.698 3.365a.395.395 0 0 1-.341.594H53.59a.396.396 0 0 1-.341-.594c.326-.564.697-1.593.697-3.365v-.395Z" fill="#FAB005" stroke="#FAB005" stroke-linecap="round" stroke-linejoin="round"/><path d="M55.917 27.666v.396a1.583 1.583 0 0 0 3.166 0v-.396" stroke="#FAB005" stroke-linecap="round" stroke-linejoin="round"/><rect x="24.25" y="42.25" width="32.5" height="6.5" rx="3.25" fill="#fff" stroke="#2DB400" stroke-width=".5"/><path d="M29.036 44v1.472L28.062 44H27v2.93h1.063v-1.484l.973 1.485H30.1V44h-1.063Z" fill="#2DB400"/><path fill-rule="evenodd" clip-rule="evenodd" d="M20 74.625V45a6 6 0 0 1 6-6h28.967a6 6 0 0 1 6 6v29.104C55.242 77.794 47.974 80 40.066 80 32.537 80 25.589 78 20 74.625Z" fill="#F1F3F5"/><rect x="24.25" y="41.25" width="32.5" height="6.5" rx="3.25" fill="#fff" stroke="#2DB400" stroke-width=".5"/><path d="M29.036 43v1.472L28.062 43H27v2.93h1.063v-1.484l.973 1.485H30.1V43h-1.063Z" fill="#2DB400"/><circle cx="57.5" cy="24.5" r="9" fill="#fff" stroke="#0064FF"/><path d="M53.947 23.313a3.56 3.56 0 0 1 3.578-3.563c1.959.015 3.527 1.643 3.527 3.607v.351c0 1.772.371 2.8.698 3.365a.395.395 0 0 1-.341.594H53.59a.396.396 0 0 1-.341-.594c.326-.564.697-1.593.697-3.365v-.395Z" fill="#FAB005" stroke="#FAB005" stroke-linecap="round" stroke-linejoin="round"/><path d="M55.917 27.666v.396a1.583 1.583 0 0 0 3.166 0v-.396" stroke="#FAB005" stroke-linecap="round" stroke-linejoin="round"/><g clip-path="url(#a)" fill="#BEBEBE"><path d="M26.29 27.556a1.435 1.435 0 0 0-1.413-1.26h-.016a1.452 1.452 0 0 0-.723.192l-.011.007a.055.055 0 0 0-.01.006C23.294 26.987 23 28.107 23 28.79l.663-.379c.234.441.681.731 1.182.737h.016a1.43 1.43 0 0 0 1.43-1.592ZM33.585 28.27c.097.192.271.29.501.29.226 0 .347-.108.347-.236 0-.156-.235-.19-.513-.246-.367-.075-.775-.185-.777-.64 0-.364.354-.68.89-.678.426 0 .693.146.89.396l-.461.266a.468.468 0 0 0-.428-.227c-.218.001-.322.089-.322.209 0 .135.177.171.496.238.363.071.791.194.792.657.001.335-.3.715-.933.713-.477.001-.793-.162-.976-.457v-.002l.494-.282ZM31.595 28.27c.097.192.271.29.501.29.226 0 .347-.108.347-.236 0-.156-.235-.19-.513-.246-.367-.075-.775-.185-.777-.64 0-.364.354-.68.89-.678.426 0 .693.146.89.396l-.461.266a.468.468 0 0 0-.428-.227c-.217.001-.322.089-.322.209 0 .135.177.171.496.238.363.071.791.194.792.657.001.335-.3.715-.933.713-.477.001-.793-.162-.976-.457v-.002l.494-.282ZM29.84 26.76c-.627 0-1.136.504-1.136 1.126 0 .621.51 1.125 1.137 1.125s1.136-.504 1.136-1.125c0-.622-.509-1.126-1.136-1.126Zm0 1.727a.603.603 0 0 1-.605-.6c0-.332.271-.6.606-.6.334 0 .606.268.606.6 0 .33-.272.6-.606.6ZM28.41 28.338a.642.642 0 0 1-.29.123c-.143 0-.24-.08-.24-.31v-.855h.677v-.491h-.677V26l-.565.323v.482h-.451v.492h.451v.905c0 .593.28.811.739.811.203 0 .475-.12.617-.224l-.261-.451Z"/></g><rect x="23" y="37" width="35" height="15" rx="2" fill="#fff"/><rect x="23" y="55" width="35" height="15" rx="2" fill="#fff"/><defs><clipPath id="a"><path fill="#fff" transform="translate(23 26)" d="M0 0h12v3.148H0z"/></clipPath></defs></svg>