<svg width="40" height="40" viewBox="0 0 40 40" fill="none" xmlns="http://www.w3.org/2000/svg">
<path d="M33.9163 18.0516C33.1956 11.7283 27.9817 7.06096 21.92 7C21.8752 7 21.83 7 21.7848 7C21.3119 7.00124 20.8395 7.03011 20.3699 7.08647C18.705 7.28271 17.0977 7.82865 15.6486 8.6901L15.5561 8.74631L15.4759 8.7956C8.49264 13.0531 6 22.8806 6 28.8637L11.6245 25.5405C13.6064 29.4058 17.4091 31.9524 21.65 32C21.6948 32 21.74 32 21.7852 32C22.2581 31.999 22.7305 31.9701 23.2001 31.9135C29.9002 31.1154 34.6979 24.9084 33.9163 18.0516Z" fill="#0064FF"/>
</svg>
